<svg xmlns="http://www.w3.org/2000/svg" width="1240" height="780" viewBox="0 0 1240 780" role="img" aria-labelledby="title desc">
<title id="title">Grobe Komponentensicht</title>
<desc id="desc">Zeigt Core, SBV-Fachmodule, Querschnittsmodule, Security und Persistenz der Anwendung.</desc>
<defs>
  <marker id="arrow" markerWidth="10" markerHeight="8" refX="9" refY="4" orient="auto" markerUnits="strokeWidth">
    <path d="M0,0 L10,4 L0,8 z" fill="#333" />
  </marker>
  <style>
    text { font-family: Arial, Helvetica, sans-serif; fill: #1f2933; }
    .caption { font-size: 12px; fill: #46525f; }
    .group-title { font-size: 15px; font-weight: 700; fill: #26323f; }
  </style>
</defs>
<rect x="0" y="0" width="1240" height="780" fill="#ffffff"/>

<text x="30" y="36" font-size="22" font-weight="700">Grobe Komponentensicht der Anwendung</text>
<rect x="30" y="70" width="260" height="255" rx="16" fill="#f7fbff" stroke="#9ab7d7"/>
<text x="50" y="100" class="group-title">Core</text>
<rect x="55" y="125" width="210" height="52" rx="10" fill="#eaf3ff" stroke="#3b6ea8" stroke-width="1.4"/>
<text x="160.0" y="149" text-anchor="middle" font-size="14" font-weight="700">App Shell</text>
<text x="160.0" y="167" text-anchor="middle" font-size="12" font-weight="400">Navigation, Lock Screen</text>
<rect x="55" y="190" width="210" height="52" rx="10" fill="#eaf3ff" stroke="#3b6ea8" stroke-width="1.4"/>
<text x="160.0" y="214" text-anchor="middle" font-size="14" font-weight="700">Barrierefreiheit</text>
<text x="160.0" y="232" text-anchor="middle" font-size="12" font-weight="400">Fokus, Tastatur, Announcer</text>
<rect x="55" y="255" width="210" height="52" rx="10" fill="#f7eefd" stroke="#7c4aa5" stroke-width="1.4"/>
<text x="160.0" y="279" text-anchor="middle" font-size="14" font-weight="700">Bridge / IPC</text>
<text x="160.0" y="297" text-anchor="middle" font-size="12" font-weight="400">Preload, Handler, Validierung</text>
<rect x="340" y="70" width="520" height="550" rx="16" fill="#f8fff9" stroke="#9ccba9"/>
<text x="360" y="100" class="group-title">SBV-Fachmodule</text>
<rect x="365" y="125" width="220" height="58" rx="10" fill="#eef8f1" stroke="#2d7a46" stroke-width="1.4"/>
<text x="475.0" y="149" text-anchor="middle" font-size="14" font-weight="700">Personenverzeichnis</text>
<text x="475.0" y="167" text-anchor="middle" font-size="12" font-weight="400">Schutz- und Beschäftigungsstatus</text>
<rect x="610" y="125" width="220" height="58" rx="10" fill="#eef8f1" stroke="#2d7a46" stroke-width="1.4"/>
<text x="720.0" y="149" text-anchor="middle" font-size="14" font-weight="700">Fallakten-Workbench</text>
<text x="720.0" y="167" text-anchor="middle" font-size="12" font-weight="400">fachlicher Mittelpunkt</text>
<rect x="365" y="215" width="220" height="58" rx="10" fill="#eef8f1" stroke="#2d7a46" stroke-width="1.4"/>
<text x="475.0" y="239" text-anchor="middle" font-size="14" font-weight="700">Maßnahmen &amp; Prozessknoten</text>
<text x="475.0" y="257" text-anchor="middle" font-size="12" font-weight="400">gemeinsame Abläufe</text>
<rect x="610" y="215" width="220" height="58" rx="10" fill="#eef8f1" stroke="#2d7a46" stroke-width="1.4"/>
<text x="720.0" y="239" text-anchor="middle" font-size="14" font-weight="700">BEM</text>
<text x="720.0" y="257" text-anchor="middle" font-size="12" font-weight="400">Eingliederungsmanagement</text>
<rect x="365" y="305" width="220" height="58" rx="10" fill="#eef8f1" stroke="#2d7a46" stroke-width="1.4"/>
<text x="475.0" y="329" text-anchor="middle" font-size="14" font-weight="700">Prävention</text>
<text x="475.0" y="347" text-anchor="middle" font-size="12" font-weight="400">§ 167 Abs. 1 SGB IX</text>
<rect x="610" y="305" width="220" height="58" rx="10" fill="#eef8f1" stroke="#2d7a46" stroke-width="1.4"/>
<text x="720.0" y="329" text-anchor="middle" font-size="14" font-weight="700">Gleichstellung / GdB</text>
<text x="720.0" y="347" text-anchor="middle" font-size="12" font-weight="400">Antragsbegleitung</text>
<rect x="365" y="395" width="220" height="58" rx="10" fill="#eef8f1" stroke="#2d7a46" stroke-width="1.4"/>
<text x="475.0" y="419" text-anchor="middle" font-size="14" font-weight="700">Kündigungsanhörung</text>
<text x="475.0" y="437" text-anchor="middle" font-size="12" font-weight="400">SBV-Beteiligung</text>
<rect x="610" y="395" width="220" height="58" rx="10" fill="#eef8f1" stroke="#2d7a46" stroke-width="1.4"/>
<text x="720.0" y="419" text-anchor="middle" font-size="14" font-weight="700">Arbeitsplatzgestaltung</text>
<text x="720.0" y="437" text-anchor="middle" font-size="12" font-weight="400">behinderungsgerecht</text>
<rect x="365" y="485" width="220" height="58" rx="10" fill="#eef8f1" stroke="#2d7a46" stroke-width="1.4"/>
<text x="475.0" y="509" text-anchor="middle" font-size="14" font-weight="700">SBV-Beteiligung</text>
<text x="475.0" y="527" text-anchor="middle" font-size="12" font-weight="400">Anhörung und Stellungnahme</text>
<rect x="910" y="70" width="290" height="550" rx="16" fill="#fffaf0" stroke="#d6b36b"/>
<text x="930" y="100" class="group-title">Querschnittsmodule</text>
<rect x="935" y="125" width="240" height="45" rx="10" fill="#fff7e6" stroke="#a66a00" stroke-width="1.4"/>
<text x="1055.0" y="149" text-anchor="middle" font-size="14" font-weight="700">Fristen &amp; iCal</text>
<text x="1055.0" y="167" text-anchor="middle" font-size="12" font-weight="400">Termine, Wiedervorlagen</text>
<rect x="935" y="185" width="240" height="45" rx="10" fill="#fff7e6" stroke="#a66a00" stroke-width="1.4"/>
<text x="1055.0" y="209" text-anchor="middle" font-size="14" font-weight="700">Dokumente</text>
<text x="1055.0" y="227" text-anchor="middle" font-size="12" font-weight="400">Ablage, Exportgrenzen</text>
<rect x="935" y="245" width="240" height="45" rx="10" fill="#fff7e6" stroke="#a66a00" stroke-width="1.4"/>
<text x="1055.0" y="269" text-anchor="middle" font-size="14" font-weight="700">Vorlagen</text>
<text x="1055.0" y="287" text-anchor="middle" font-size="12" font-weight="400">Schreiben, Textbausteine</text>
<rect x="935" y="305" width="240" height="45" rx="10" fill="#fff7e6" stroke="#a66a00" stroke-width="1.4"/>
<text x="1055.0" y="329" text-anchor="middle" font-size="14" font-weight="700">Wissensbasis</text>
<text x="1055.0" y="347" text-anchor="middle" font-size="12" font-weight="400">lokale Fachinfos</text>
<rect x="935" y="365" width="240" height="45" rx="10" fill="#fff7e6" stroke="#a66a00" stroke-width="1.4"/>
<text x="1055.0" y="389" text-anchor="middle" font-size="14" font-weight="700">Kontakte</text>
<text x="1055.0" y="407" text-anchor="middle" font-size="12" font-weight="400">datensparsam</text>
<rect x="935" y="425" width="240" height="45" rx="10" fill="#fff7e6" stroke="#a66a00" stroke-width="1.4"/>
<text x="1055.0" y="449" text-anchor="middle" font-size="14" font-weight="700">Berichte / Exporte</text>
<text x="1055.0" y="467" text-anchor="middle" font-size="12" font-weight="400">Privacy Guards</text>
<rect x="935" y="485" width="240" height="45" rx="10" fill="#fff7e6" stroke="#a66a00" stroke-width="1.4"/>
<text x="1055.0" y="509" text-anchor="middle" font-size="14" font-weight="700">Compliance Center</text>
<text x="1055.0" y="527" text-anchor="middle" font-size="12" font-weight="400">Prüfung und Status</text>
<rect x="935" y="545" width="240" height="45" rx="10" fill="#fff7e6" stroke="#a66a00" stroke-width="1.4"/>
<text x="1055.0" y="569" text-anchor="middle" font-size="14" font-weight="700">Einstellungen</text>
<text x="1055.0" y="587" text-anchor="middle" font-size="12" font-weight="400">Backup, Portable</text>
<rect x="365" y="670" width="240" height="58" rx="10" fill="#f7eefd" stroke="#7c4aa5" stroke-width="1.4"/>
<text x="485.0" y="694" text-anchor="middle" font-size="14" font-weight="700">Security &amp; Privacy</text>
<text x="485.0" y="712" text-anchor="middle" font-size="12" font-weight="400">Session Lock, Audit, Retention, Anonymisierung</text>
<rect x="760" y="670" width="240" height="58" rx="10" fill="#f0f0f0" stroke="#666666" stroke-width="1.4"/>
<text x="880.0" y="694" text-anchor="middle" font-size="14" font-weight="700">Persistenz</text>
<text x="880.0" y="712" text-anchor="middle" font-size="12" font-weight="400">SQLCipher, Migrationen, Schema-Version</text>
<path d="M 290 195 L 340 195" stroke="#333" stroke-width="1.5" fill="none" marker-end="url(#arrow)"/>
<text x="315.0" y="187.0" text-anchor="middle" font-size="11" fill="#555">nutzt</text>
<path d="M 860 330 L 910 330" stroke="#333" stroke-width="1.5" fill="none" marker-end="url(#arrow)"/>
<text x="885.0" y="322.0" text-anchor="middle" font-size="11" fill="#555">unterstützt</text>
<path d="M 600 620 L 485 670" stroke="#333" stroke-width="1.5" fill="none" marker-end="url(#arrow)"/>
<text x="542.5" y="637.0" text-anchor="middle" font-size="11" fill="#555">schützt</text>
<path d="M 1055 620 L 485 670" stroke="#333" stroke-width="1.5" fill="none" marker-end="url(#arrow)"/>
<text x="770.0" y="637.0" text-anchor="middle" font-size="11" fill="#555">prüft</text>
<path d="M 605 699 L 760 699" stroke="#333" stroke-width="1.5" fill="none" marker-end="url(#arrow)"/>
<text x="682.5" y="691.0" text-anchor="middle" font-size="11" fill="#555">speichert</text>
<path d="M 160 307 L 760 670" stroke="#333" stroke-width="1.5" fill="none" marker-end="url(#arrow)"/>
<text x="460.0" y="480.5" text-anchor="middle" font-size="11" fill="#555">IPC → DB</text>
</svg>